<?xml version="1.0" encoding="utf-8"?>
<!-- Generator: Adobe Illustrator 24.1.1, SVG Export Plug-In . SVG Version: 6.00 Build 0)  -->
<svg version="1.1" id="Layer_1" xmlns="http://www.w3.org/2000/svg" xmlns:xlink="http://www.w3.org/1999/xlink" x="0px" y="0px"
	 viewBox="0 0 512 512" style="enable-background:new 0 0 512 512;" xml:space="preserve">
<g>
	<path d="M500.9,512c-10.7,0-21-2.4-30.1-6.6c-9.4-4.4-20-6.9-31.1-6.9c-11.1,0-21.6,2.5-31.1,6.9c-9.1,4.1-19.4,6.6-30.1,6.6
		c-10.7,0-21-2.4-30.1-6.6c-9.5-4.4-20-6.9-31.1-6.9c-11.1,0-21.7,2.5-31.1,6.9c-9.1,4.1-19.4,6.6-30.1,6.6c-10.7,0-21-2.4-30.2-6.6
		c-9.4-4.4-20-6.9-31-6.9c-11.1,0-21.7,2.5-31.1,6.9c-9.1,4.1-19.4,6.6-30.1,6.6c-10.7,0-21-2.4-30.2-6.6c-9.4-4.4-20-6.9-31-6.9
		c-11.1,0-21.7,2.5-31.1,6.9c-9.1,4.1-19.5,6.6-30.2,6.6v-45.1c10.7,0,21.1-2.4,30.2-6.6c9.4-4.2,20-6.8,31.1-6.8
		c11,0,21.6,2.6,31,6.8c9.3,4.1,19.5,6.6,30.2,6.6c10.7,0,20.9-2.4,30.1-6.6c9.4-4.2,20-6.8,31.1-6.8c11,0,21.6,2.6,31,6.8
		c9.3,4.1,19.5,6.6,30.2,6.6c10.7,0,21-2.4,30.1-6.6c9.4-4.2,20-6.8,31.1-6.8c11.1,0,21.6,2.6,31.1,6.8c9.2,4.1,19.4,6.6,30.1,6.6
		c10.8,0,21-2.4,30.1-6.6c9.5-4.2,20-6.8,31.1-6.8c11.1,0,21.7,2.6,31.1,6.8c9.1,4.1,19.4,6.6,30.1,6.6V512z M149.7,291
		c22.8,0,41.3-18.5,41.3-41.2c0-22.7-18.5-41.1-41.3-41.1c-22.7,0-41.3,18.4-41.3,41.1S127,291,149.7,291z M155.6,433.4
		c-6.5,11.1-20.7,14.8-31.8,8.3c-11.1-6.4-14.9-20.7-8.4-31.7l95.8-164.4c3.5-6.2,8.6-11.3,14.7-14.7l123.2-74.4l83.6-141.9
		c7.9-13.9,25.6-18.6,39.5-10.7c13.8,8,18.5,25.6,10.6,39.4l-100.2,170c-3.4,6.2-8.5,11.3-14.7,14.7l-145.4,90.1L155.6,433.4z"/>
</g>
</svg>
